<?xml version="1.0" encoding="UTF-8"?>
<svg version="1.1" xmlns="http://www.w3.org/2000/svg" width="960" height="127">
<path d="M0 0 C1.48447242 -0.01145999 2.96890561 -0.03181607 4.453125 -0.06152344 C16.90388771 -0.31012205 28.38544828 0.74848655 38.18286133 9.29516602 C42.49258146 15.17762762 42.07183013 21.28712866 41.18286133 28.29516602 C37.52641819 39.62459969 28.91413135 49.41572722 20.18286133 57.29516602 C19.52286133 57.29516602 18.86286133 57.29516602 18.18286133 57.29516602 C18.18286133 57.95516602 18.18286133 58.61516602 18.18286133 59.29516602 C16.33911133 61.00219727 16.33911133 61.00219727 13.68286133 63.10766602 C12.68254883 63.90817383 11.68223633 64.70868164 10.65161133 65.53344727 C10.09731445 65.97382324 9.54301758 66.41419922 8.97192383 66.86791992 C5.68958425 69.48644574 2.43892308 72.14409358 -0.81713867 74.79516602 C-8.40852781 80.97104481 -8.40852781 80.97104481 -12.03979492 83.88110352 C-21.76909063 91.43960689 -21.76909063 91.43960689 -28.81713867 101.29516602 C-4.06713867 101.79016602 -4.06713867 101.79016602 21.18286133 102.29516602 C17.18286133 119.29516602 17.18286133 119.29516602 15.18286133 125.29516602 C-14.51713867 125.29516602 -44.21713867 125.29516602 -74.81713867 125.29516602 C-73.56789812 119.04896324 -72.33764116 113.13608374 -70.44213867 107.10766602 C-70.24620117 106.44831055 -70.05026367 105.78895508 -69.84838867 105.10961914 C-64.38114601 87.54869731 -48.43967471 75.68528783 -34.34057617 64.98657227 C-12.42841197 50.03482854 -12.42841197 50.03482854 0.18286133 28.29516602 C0.57769806 26.60743255 0.97351319 24.91992765 1.37036133 23.23266602 C1.63848633 21.93329102 1.90661133 20.63391602 2.18286133 19.29516602 C-0.78713867 19.62516602 -3.75713867 19.95516602 -6.81713867 20.29516602 C-9.10183383 26.93166148 -10.96245746 33.49466822 -12.81713867 40.29516602 C-25.35713867 40.29516602 -37.89713867 40.29516602 -50.81713867 40.29516602 C-49.52478622 27.37164151 -46.58702624 18.12383127 -36.81713867 9.29516602 C-26.23675404 1.12053009 -12.81110125 0.0686284 0 0 Z " fill="#D3000E" transform="translate(470.817138671875,0.704833984375)"/>
<path d="M0 0 C0.9215538 0.00222061 1.8431076 0.00444122 2.79258728 0.00672913 C3.83359085 0.00680466 4.87459442 0.00688019 5.94714355 0.00695801 C7.07941879 0.01211929 8.21169403 0.01728058 9.37828064 0.02259827 C11.10744972 0.02472069 11.10744972 0.02472069 12.87155151 0.02688599 C16.57043503 0.03250446 20.26925903 0.0450601 23.96812439 0.05775452 C26.46877456 0.06276714 28.96942567 0.06733045 31.47007751 0.07142639 C37.61528027 0.0824799 43.76044808 0.099236 49.90562439 0.12025452 C48.55908431 7.32359567 46.86607053 14.38650222 44.97203064 21.46400452 C44.69342697 22.51374451 44.4148233 23.5634845 44.1277771 24.64503479 C43.54175142 26.85054018 42.95425122 29.05565426 42.36534119 31.26039124 C41.47089639 34.60987405 40.58144122 37.96065165 39.69273376 41.31166077 C39.11946004 43.46668691 38.5459018 45.62163739 37.97203064 47.77650452 C37.57812889 49.2597522 37.57812889 49.2597522 37.17626953 50.77296448 C32.40079029 68.62508862 32.40079029 68.62508862 30.90562439 70.12025452 C28.61411022 70.20816427 26.31989915 70.2271949 24.02671814 70.21791077 C22.99672447 70.21578835 22.99672447 70.21578835 21.94592285 70.21362305 C19.74494638 70.20800931 17.5440703 70.19545459 15.34312439 70.18275452 C13.85419356 70.17774128 12.36526115 70.17317807 10.87632751 70.16908264 C7.21939364 70.15803545 3.56251881 70.14076165 -0.09437561 70.12025452 C0.48010904 65.13422141 1.56680073 60.7591822 3.26890564 56.04212952 C3.50216049 55.39004517 3.73541534 54.73796082 3.97573853 54.06611633 C4.71698697 51.99853137 5.4673704 49.93440432 6.21812439 47.87025452 C6.71026756 46.501983 7.20180865 45.13349478 7.69273376 43.76478577 C9.08826895 39.88006434 10.49559988 35.99974118 11.90562439 32.12025452 C12.52316589 30.41965881 12.52316589 30.41965881 13.15318298 28.68470764 C14.06960329 26.16283528 14.98697242 23.6413146 15.90562439 21.12025452 C12.33286496 24.4041088 9.70904652 28.14020452 7.05406189 32.16712952 C6.59512543 32.85599243 6.13618896 33.54485535 5.66334534 34.2545929 C4.69129574 35.71568251 3.72148462 37.17826351 2.75376892 38.64222717 C1.3108322 40.82456733 -0.1391313 43.00208893 -1.59046936 45.17884827 C-2.54272208 46.61215656 -3.49455666 48.04574276 -4.44593811 49.47962952 C-4.86300018 50.10633545 -5.28006226 50.73304138 -5.70976257 51.3787384 C-10.65498869 58.870501 -15.33189179 66.50028041 -20.09437561 74.12025452 C2.34562439 74.12025452 24.78562439 74.12025452 47.90562439 74.12025452 C46.58379965 81.3902906 45.35475136 87.32949336 42.90562439 94.12025452 C36.96562439 94.12025452 31.02562439 94.12025452 24.90562439 94.12025452 C24.30749939 96.69837952 23.70937439 99.27650452 23.09312439 101.93275452 C18.50232354 121.52355537 18.50232354 121.52355537 16.90562439 123.12025452 C14.52993919 123.20865122 12.18353765 123.23555757 9.80796814 123.21791077 C8.7446804 123.21578835 8.7446804 123.21578835 7.65991211 123.21362305 C5.38760727 123.20800894 3.11539964 123.19545415 0.84312439 123.18275452 C-0.69398357 123.17774133 -2.23109306 123.17317811 -3.76820374 123.16908264 C-7.54363203 123.15803494 -11.31898732 123.14076093 -15.09437561 123.12025452 C-13.68834666 113.40396488 -10.90616346 104.68033321 -8.09437561 95.12025452 C-25.58437561 94.79025452 -43.07437561 94.46025452 -61.09437561 94.12025452 C-57.20161547 74.65645382 -57.20161547 74.65645382 -50.28187561 65.68275452 C-49.71219055 64.91906555 -49.14250549 64.15537659 -48.55555725 63.36854553 C-47.35348661 61.75840397 -46.14562159 60.15257349 -44.93226624 58.55091858 C-41.9295399 54.57972524 -38.98365303 50.5668728 -36.03187561 46.55775452 C-35.4462384 45.76570618 -34.8606012 44.97365784 -34.25721741 44.15760803 C-29.97233462 38.35272383 -25.79724165 32.4780149 -21.65736389 26.56922913 C-17.64820639 20.86440618 -13.54372769 15.2330477 -9.40687561 9.62025452 C-8.79392639 8.78816467 -8.18097717 7.95607483 -7.54945374 7.09877014 C-2.40352227 0.13800505 -2.40352227 0.13800505 0 0 Z " fill="#D1000E" transform="translate(548.0943756103516,2.8797454833984375)"/>
<path d="M0 0 C3.63 0 7.26 0 11 0 C11 2.31 11 4.62 11 7 C17.27 7.33 23.54 7.66 30 8 C30 5.36 30 2.72 30 0 C33.63 0 37.26 0 41 0 C41 2.64 41 5.28 41 8 C46.61 8 52.22 8 58 8 C58 10.97 58 13.94 58 17 C52.39 17 46.78 17 41 17 C41 18.65 41 20.3 41 22 C45.62 22 50.24 22 55 22 C55 25.3 55 28.6 55 32 C50.38 32 45.76 32 41 32 C41 33.65 41 35.3 41 37 C47.27 37 53.54 37 60 37 C60 40.3 60 43.6 60 47 C48.45 47 36.9 47 25 47 C25 48.65 25 50.3 25 52 C25.84296631 51.99476318 26.68593262 51.98952637 27.55444336 51.98413086 C30.67227936 51.96712174 33.79009177 51.95456594 36.90795898 51.94506836 C38.25920386 51.94002943 39.61044326 51.93319823 40.96166992 51.92456055 C42.90020434 51.91247581 44.838778 51.90730172 46.77734375 51.90234375 C48.52905884 51.89448853 48.52905884 51.89448853 50.31616211 51.88647461 C53 52 53 52 54 53 C54.08790975 55.29151417 54.10694038 57.58572524 54.09765625 59.87890625 C54.0962413 60.5655687 54.09482635 61.25223114 54.09336853 61.95970154 C54.08775479 64.16067801 54.07520007 66.36155409 54.0625 68.5625 C54.05748676 70.05143083 54.05292355 71.54036324 54.04882812 73.02929688 C54.03778093 76.68623075 54.02050713 80.34310558 54 84 C55.98 84.33 57.96 84.66 60 85 C60.02689216 86.47906892 60.04634621 87.95827483 60.0625 89.4375 C60.07410156 90.26121094 60.08570313 91.08492188 60.09765625 91.93359375 C60 94 60 94 59 95 C57.33382885 95.04063832 55.66611905 95.042721 54 95 C54.0825 96.19625 54.165 97.3925 54.25 98.625 C54.25 103.10407241 52.94720046 105.56159946 50 109 C47.06195748 110.82294642 44.88609269 111.24170396 41.453125 111.1953125 C40.18662109 111.18564453 40.18662109 111.18564453 38.89453125 111.17578125 C38.02183594 111.15902344 37.14914062 111.14226562 36.25 111.125 C34.91775391 111.11146484 34.91775391 111.11146484 33.55859375 111.09765625 C31.37227989 111.0741475 29.18610516 111.03827811 27 111 C26.67 107.04 26.34 103.08 26 99 C27.37285156 99.12568359 27.37285156 99.12568359 28.7734375 99.25390625 C29.96195313 99.35574219 31.15046875 99.45757812 32.375 99.5625 C33.55835938 99.66691406 34.74171875 99.77132812 35.9609375 99.87890625 C38.91898631 100.24153596 38.91898631 100.24153596 41 99 C41.495 97.515 41.495 97.515 42 96 C27.48 96 12.96 96 -2 96 C-2 100.95 -2 105.9 -2 111 C-5.96 111 -9.92 111 -14 111 C-14 105.72 -14 100.44 -14 95 C-15.98 95 -17.96 95 -20 95 C-20 91.7 -20 88.4 -20 85 C-18.02 85 -16.04 85 -14 85 C-14.00523682 84.03586182 -14.01047363 83.07172363 -14.01586914 82.07836914 C-14.03392118 78.51327436 -14.04543274 74.94818364 -14.05493164 71.38305664 C-14.0599714 69.83780234 -14.0668032 68.29255284 -14.07543945 66.74731445 C-14.08752076 64.53074971 -14.09323173 62.31424782 -14.09765625 60.09765625 C-14.10281754 59.4028566 -14.10797882 58.70805695 -14.11329651 57.99220276 C-14.11349277 56.3277067 -14.06189129 54.66334501 -14 53 C-13 52 -13 52 -10.40795898 51.88647461 C-9.28204346 51.89171143 -8.15612793 51.89694824 -6.99609375 51.90234375 C-5.78115234 51.90556641 -4.56621094 51.90878906 -3.31445312 51.91210938 C-2.03505859 51.92048828 -0.75566406 51.92886719 0.5625 51.9375 C1.84576172 51.94201172 3.12902344 51.94652344 4.45117188 51.95117188 C7.63416022 51.96300455 10.81705762 51.97948932 14 52 C14 50.35 14 48.7 14 47 C3.11 47 -7.78 47 -19 47 C-19 43.7 -19 40.4 -19 37 C-12.73 37 -6.46 37 0 37 C0 35.35 0 33.7 0 32 C-4.62 32 -9.24 32 -14 32 C-14 28.7 -14 25.4 -14 22 C-9.38 22 -4.76 22 0 22 C0 20.35 0 18.7 0 17 C-5.94 17 -11.88 17 -18 17 C-18 14.03 -18 11.06 -18 8 C-12.06 8 -6.12 8 0 8 C0 5.36 0 2.72 0 0 Z M10 17 C10.33 18.65 10.66 20.3 11 22 C17.27 22 23.54 22 30 22 C30 20.35 30 18.7 30 17 C23.4 17 16.8 17 10 17 Z M11 32 C10.67 33.65 10.34 35.3 10 37 C16.6 37 23.2 37 30 37 C30 35.35 30 33.7 30 32 C23.73 32 17.46 32 11 32 Z M-2 61 C-2.33 63.64 -2.66 66.28 -3 69 C2.61 69 8.22 69 14 69 C14 66.36 14 63.72 14 61 C8.72 61 3.44 61 -2 61 Z M25 61 C25 63.64 25 66.28 25 69 C30.94 69 36.88 69 43 69 C42.67 66.36 42.34 63.72 42 61 C36.39 61 30.78 61 25 61 Z M-2 78 C-2.33 80.31 -2.66 82.62 -3 85 C2.61 85 8.22 85 14 85 C14 82.69 14 80.38 14 78 C8.72 78 3.44 78 -2 78 Z M25 78 C25 80.31 25 82.62 25 85 C30.94 85 36.88 85 43 85 C43 83.02 43 81.04 43 79 C41.78571012 77.55611429 41.78571012 77.55611429 38.18359375 77.90234375 C36.60153318 77.90901911 35.01948841 77.92098125 33.4375 77.9375 C32.63119141 77.94201172 31.82488281 77.94652344 30.99414062 77.95117188 C28.99606244 77.96299482 26.99802217 77.98093086 25 78 Z " fill="#CA000E" transform="translate(777,0)"/>
<path d="M0 0 C3.96 0.33 7.92 0.66 12 1 C10.125 11.75 10.125 11.75 9 14 C9.6241832 13.99777939 10.24836639 13.99555878 10.89146423 13.99327087 C17.36342804 13.9712192 23.83538125 13.9560939 30.30737305 13.94506836 C32.72567172 13.94002651 35.14396733 13.93319322 37.56225586 13.92456055 C41.02979283 13.91248843 44.49728966 13.90677037 47.96484375 13.90234375 C49.05337143 13.89718246 50.14189911 13.89202118 51.26341248 13.88670349 C52.76485558 13.88659019 52.76485558 13.88659019 54.29663086 13.88647461 C55.62566689 13.88314369 55.62566689 13.88314369 56.98155212 13.87974548 C59 14 59 14 60 15 C60.10453999 16.93047656 60.13855537 18.8648023 60.14526367 20.7980957 C60.15164352 22.040616 60.15802338 23.28313629 60.16459656 24.56330872 C60.16612679 25.9341325 60.16723992 27.3049568 60.16796875 28.67578125 C60.1711829 30.08050063 60.17454709 31.48521968 60.17805481 32.88993835 C60.18405898 35.84663669 60.18589383 38.80330576 60.18530273 41.76000977 C60.18520202 45.51760062 60.19875333 49.27499863 60.21607494 53.03254414 C60.22730222 55.9419589 60.22921855 58.85132898 60.22869301 61.76076317 C60.22986093 63.14360393 60.2342146 64.52644632 60.24202538 65.90926552 C60.30913065 79.03793684 59.92551901 94.49790883 51.6875 105.5 C46.17768311 110.62541106 41.3171405 111.48761601 34 111.3046875 C28.85642844 110.78229351 23.95081219 109.45154703 19 108 C18.1276588 105.00519083 17.89170234 102.36424089 17.9375 99.25 C17.94652344 98.45078125 17.95554687 97.6515625 17.96484375 96.828125 C17.97644531 96.22484375 17.98804688 95.6215625 18 95 C24.59009901 95.88712871 24.59009901 95.88712871 26.88671875 96.51953125 C29.47746612 97.10855514 31.90678229 97.20664134 34.5625 97.25 C35.51253906 97.27578125 36.46257813 97.3015625 37.44140625 97.328125 C40.50196769 96.93562552 41.05468116 96.30787482 43 94 C45.62556477 88.91631696 46.62376668 83.52254115 47.1796875 77.8828125 C47.29967606 76.73270187 47.29967606 76.73270187 47.42208862 75.55935669 C48.34991605 65.68052007 48.21586511 55.78615475 48.125 45.875 C48.1149342 43.93359845 48.10581481 41.99219175 48.09765625 40.05078125 C48.07596454 35.36705665 48.04164043 30.68358796 48 26 C46.68 25.67 45.36 25.34 44 25 C43.92523437 26.12792969 43.85046875 27.25585938 43.7734375 28.41796875 C41.64903689 55.4793404 32.94628699 77.95032289 13.875 97.375 C13.38418945 97.87547852 12.89337891 98.37595703 12.38769531 98.89160156 C4.27428821 106.92892849 4.27428821 106.92892849 0 107.0625 C-3.12238498 105.40373298 -5.43120995 103.45202687 -8 101 C-8 100.01 -8 99.02 -8 98 C-5.9453125 96.52734375 -5.9453125 96.52734375 -3.125 94.9375 C13.81746315 84.51973383 22.52372773 67.98784689 27.6875 49.25 C29.49481084 41.61000418 30.21461114 33.79844936 31 26 C29.02 25.67 27.04 25.34 25 25 C24.99742187 25.825 24.99484375 26.65 24.9921875 27.5 C24.16692697 52.14778119 9.06518916 70.5216692 -7 88 C-11.07956938 86.44323077 -14.48095576 84.61882362 -18 82 C-18 81.34 -18 80.68 -18 80 C-16.6015625 78.6953125 -16.6015625 78.6953125 -14.625 77.125 C-0.04113171 64.6282224 8.31637116 49.62625883 12 31 C12.19722656 30.02160156 12.39445313 29.04320313 12.59765625 28.03515625 C12.73042969 27.36355469 12.86320313 26.69195313 13 26 C10.69 25.67 8.38 25.34 6 25 C5.67 26.175625 5.34 27.35125 5 28.5625 C3.42829436 33.26257668 1.3337086 37.60763733 -0.9375 42 C-1.27330078 42.6710376 -1.60910156 43.3420752 -1.95507812 44.03344727 C-4.43038488 48.70098049 -4.43038488 48.70098049 -6.95703125 50.02734375 C-9.47613119 49.99362731 -11.38677969 49.431331 -13.75 48.5625 C-14.94882812 48.13130859 -14.94882812 48.13130859 -16.171875 47.69140625 C-16.77515625 47.46324219 -17.3784375 47.23507813 -18 47 C-16.61575768 43.18217039 -14.79991298 39.75879628 -12.82666016 36.22705078 C-8.22743318 27.94246191 -5.20010697 20.24489395 -3 11 C-2.42316308 8.87322734 -1.84034169 6.7480637 -1.25 4.625 C-0.8375 3.09875 -0.425 1.5725 0 0 Z " fill="#CE000E" transform="translate(900,0)"/>
<path d="M0 0 C11.22 0 22.44 0 34 0 C32.875 9 32.875 9 31.58984375 13.59375 C31.18862305 15.04394531 31.18862305 15.04394531 30.77929688 16.5234375 C30.50150391 17.50570313 30.22371094 18.48796875 29.9375 19.5 C29.65583984 20.51320313 29.37417969 21.52640625 29.08398438 22.5703125 C28.39434817 25.04832734 27.69958811 27.52478 27 30 C27.81984375 29.57847656 28.6396875 29.15695313 29.484375 28.72265625 C30.56203125 28.17480469 31.6396875 27.62695312 32.75 27.0625 C33.81734375 26.51722656 34.8846875 25.97195312 35.984375 25.41015625 C40.99271022 23.06817566 45.31617877 22.79060071 50.8125 22.75 C51.49892578 22.729375 52.18535156 22.70875 52.89257812 22.6875 C59.03044598 22.64104499 63.70314119 23.99761026 68.4375 28.125 C72.65033692 35.87661994 68.92750679 45.09815069 66.63696289 53.01416016 C66.05655103 55.02056477 65.49277053 57.03109492 64.93164062 59.04296875 C62.1604311 68.8395689 62.1604311 68.8395689 61 70 C58.47905924 70.08847743 55.98569107 70.11527301 53.46484375 70.09765625 C52.33496788 70.09553383 52.33496788 70.09553383 51.18226624 70.09336853 C48.7673044 70.08775376 46.35243399 70.07519883 43.9375 70.0625 C42.30403779 70.0574869 40.67057414 70.05292366 39.03710938 70.04882812 C35.02470415 70.03777954 31.01236759 70.02050506 27 70 C28.14519884 63.36848184 29.43541761 56.82677876 31.125 50.3125 C31.30675781 49.59900391 31.48851562 48.88550781 31.67578125 48.15039062 C32.11384064 46.43273671 32.55640652 44.71623303 33 43 C28.545 43.495 28.545 43.495 24 44 C21.60847425 51.52662927 19.41517534 59.04360918 17.61328125 66.734375 C17 69 17 69 16 70 C13.47905924 70.08847743 10.98569107 70.11527301 8.46484375 70.09765625 C7.33496788 70.09553383 7.33496788 70.09553383 6.18226624 70.09336853 C3.7673044 70.08775376 1.35243399 70.07519883 -1.0625 70.0625 C-2.69596221 70.0574869 -4.32942586 70.05292366 -5.96289062 70.04882812 C-9.97529585 70.03777954 -13.98763241 70.02050506 -18 70 C-17.45347692 65.09755191 -16.73317037 60.48068018 -15.43359375 55.7109375 C-15.11656494 54.53563477 -14.79953613 53.36033203 -14.47290039 52.14941406 C-14.13121826 50.90385742 -13.78953613 49.65830078 -13.4375 48.375 C-13.0820602 47.06492523 -12.72717072 45.75470104 -12.37280273 44.44433594 C-11.82002523 42.40111371 -11.2667036 40.35805044 -10.71125793 38.31555176 C-9.36354843 33.35867583 -8.03904922 28.3959979 -6.7265625 23.4296875 C-6.36011036 22.04508386 -5.99365532 20.66048098 -5.62719727 19.27587891 C-5.09670278 17.27095689 -4.56669291 15.26591387 -4.03829956 13.26043701 C-3.54969418 11.40746433 -3.05812189 9.55527475 -2.56640625 7.703125 C-2.28740479 6.64770508 -2.00840332 5.59228516 -1.72094727 4.50488281 C-1 2 -1 2 0 0 Z " fill="#CF000E" transform="translate(621,3)"/>
<path d="M0 0 C0.76918259 -0.00570007 1.53836517 -0.01140015 2.33085632 -0.01727295 C3.96933613 -0.02674722 5.6078352 -0.03326651 7.24633789 -0.03710938 C9.71341344 -0.04668746 12.17960925 -0.07763075 14.64648438 -0.109375 C36.4031263 -0.25866596 36.4031263 -0.25866596 45.01171875 6.390625 C50.24339068 11.61142028 51.57080569 16.61505144 51.88671875 23.890625 C51.59178452 34.0337978 48.70855775 43.89383642 41.44921875 51.203125 C30.81861594 60.70688391 19.08669716 60.41401384 5.44921875 60.203125 C5.32804687 61.481875 5.206875 62.760625 5.08203125 64.078125 C4.91307215 65.78648919 4.74378376 67.49482084 4.57421875 69.203125 C4.49558594 70.04230469 4.41695312 70.88148437 4.3359375 71.74609375 C4.21025391 72.99326172 4.21025391 72.99326172 4.08203125 74.265625 C3.97205811 75.39677734 3.97205811 75.39677734 3.85986328 76.55078125 C3.30285488 80.14848591 2.33218625 83.67125502 1.44921875 87.203125 C-5.81078125 87.203125 -13.07078125 87.203125 -20.55078125 87.203125 C-19.94921187 77.85918321 -18.81474333 68.75183702 -17.30078125 59.515625 C-16.84991654 56.711406 -16.40334348 53.90650924 -15.95703125 51.1015625 C-15.8421637 50.38220016 -15.72729614 49.66283783 -15.60894775 48.92167664 C-14.27032838 40.50492992 -13.03289751 32.07350861 -11.80078125 23.640625 C-11.69423218 22.91283844 -11.58768311 22.18505188 -11.47790527 21.43521118 C-10.21604071 12.88843711 -10.21604071 12.88843711 -9.04980469 4.32836914 C-8.14758227 -1.32199738 -4.91765229 0.0280661 0 0 Z M11.44921875 20.203125 C10.45921875 26.803125 9.46921875 33.403125 8.44921875 40.203125 C16.002623 40.70775482 16.002623 40.70775482 23.01171875 38.453125 C25.94763525 35.74304823 27.25518066 34.28270716 27.62890625 30.27734375 C27.75680844 26.3905383 27.64158996 24.49168182 25.44921875 21.203125 C22.29990982 20.15335536 20.06107419 20.10180905 16.76171875 20.140625 C15.00859375 20.16125 13.25546875 20.181875 11.44921875 20.203125 Z " fill="#0064B0" transform="translate(20.55078125,39.796875)"/>
<path d="M0 0 C-0.5737389 9.08923201 -1.61050442 18.00200434 -3 27 C-5.46526324 25.8447302 -7.1165389 24.89031633 -9.125 23 C-13.88904547 19.68588141 -18.92796372 18.53251622 -24.6953125 19.41015625 C-31.86181007 21.36757275 -36.02882402 24.05834822 -39.75 30.5625 C-43.21642122 37.06752462 -43.55073926 42.69545828 -43 50 C-41.64955283 53.66549946 -40.16996415 56.65187841 -37 59 C-31.61008789 61.38158907 -26.28230398 62.06482771 -20.6640625 60.2421875 C-16.25377751 58.38136958 -12.57836686 56.23207329 -9 53 C-8.01 53.495 -8.01 53.495 -7 54 C-7.5263745 58.10964995 -8.10219251 62.21086248 -8.6875 66.3125 C-8.91083008 68.06336914 -8.91083008 68.06336914 -9.13867188 69.84960938 C-9.30302734 70.96787109 -9.46738281 72.08613281 -9.63671875 73.23828125 C-9.77811279 74.26993408 -9.91950684 75.30158691 -10.06518555 76.36450195 C-11 79 -11 79 -13.33520508 80.79760742 C-18.97912513 83.34422274 -24.19876301 83.21633868 -30.3125 83.25 C-31.23740234 83.270625 -32.16230469 83.29125 -33.11523438 83.3125 C-38.91910851 83.3455 -42.85856845 82.71586284 -48 80 C-48.7940625 79.58621094 -49.588125 79.17242187 -50.40625 78.74609375 C-57.88525902 74.07171311 -63.20834304 67.42504544 -66 59 C-68.60768181 45.2533317 -66.42915637 31.98945282 -59.20703125 20.03125 C-51.32446098 8.57713592 -41.06132244 0.10703256 -27.375 -3.375 C-17.39213504 -5.09248214 -9.5166129 -3.34125594 0 0 Z " fill="#0065B1" transform="translate(137,44)"/>
<path d="M0 0 C3.375 1.8125 3.375 1.8125 6 4 C6.78375 4.5775 7.5675 5.155 8.375 5.75 C8.91125 6.1625 9.4475 6.575 10 7 C10.886875 6.21625 11.77375 5.4325 12.6875 4.625 C17.75716499 0.47281498 22.04537468 -0.48504521 28.5625 -0.30078125 C32.39967486 0.17271629 34.27227506 1.27227506 37 4 C40.6355965 10.93234493 39.9991141 17.18480571 38.8125 24.6875 C38.66321045 25.73808594 38.5139209 26.78867188 38.36010742 27.87109375 C37.92428122 30.91695393 37.46311956 33.9581935 37 37 C36.77832641 38.55818062 36.55922011 40.11673068 36.34375 41.67578125 C35.91167362 44.7860958 35.45891016 47.89353125 35 51 C29.06 51 23.12 51 17 51 C17.55828153 43.37015246 18.39542542 35.87984462 19.59765625 28.32421875 C20.50075302 22.00426814 20.50075302 22.00426814 19 16 C14.9693437 15.60257202 14.9693437 15.60257202 11.39453125 17.1328125 C9.48853502 19.68481866 9.11367622 21.93932636 8.5 25.0625 C8.25636719 26.29355469 8.01273437 27.52460937 7.76171875 28.79296875 C6.40201968 36.17800094 5.19746853 43.58709959 4 51 C-1.94 51 -7.88 51 -14 51 C-13.7834375 49.55109375 -13.566875 48.1021875 -13.34375 46.609375 C-10.94814842 31.8719053 -10.94814842 31.8719053 -11 17 C-12.10649557 15.68465212 -12.10649557 15.68465212 -14.875 15.6875 C-17.9881962 15.67495264 -17.9881962 15.67495264 -19.59765625 17.52734375 C-21.47502237 20.83757426 -21.99728625 24.16529304 -22.5625 27.875 C-22.74582886 28.99152954 -22.74582886 28.99152954 -22.93286133 30.13061523 C-23.30348797 32.4183769 -23.65546098 34.70817381 -24 37 C-24.10731445 37.71333496 -24.21462891 38.42666992 -24.32519531 39.16162109 C-24.91145101 43.10442327 -25.45953802 47.05047014 -26 51 C-31.94 51 -37.88 51 -44 51 C-43.35719792 41.83276584 -42.20318576 32.81459827 -40.84326172 23.7331543 C-40.49599297 21.41070192 -40.15582921 19.08728256 -39.81640625 16.76367188 C-39.59676792 15.27858458 -39.37673083 13.7935562 -39.15625 12.30859375 C-39.05517944 11.61801376 -38.95410889 10.92743378 -38.84997559 10.21592712 C-38.41905458 7.35910284 -37.91617281 4.74851843 -37 2 C-31.06 2 -25.12 2 -19 2 C-19 2.99 -19 3.98 -19 5 C-17.6078125 4.0409375 -17.6078125 4.0409375 -16.1875 3.0625 C-10.90508515 -0.35553314 -6.15582915 -0.71065734 0 0 Z " fill="#0096D8" transform="translate(288,73)"/>
<path d="M0 0 C3.96 0 7.92 0 12 0 C12 7.26 12 14.52 12 22 C15.3 22 18.6 22 22 22 C22 25.63 22 29.26 22 33 C18.7 33 15.4 33 12 33 C12.33 41.58 12.66 50.16 13 59 C16.465 57.02 16.465 57.02 20 55 C20.66 55 21.32 55 22 55 C23.32421875 56.390625 23.32421875 56.390625 24.6875 58.25 C25.14511719 58.85328125 25.60273437 59.4565625 26.07421875 60.078125 C27 62 27 62 26 66 C21.71 68.31 17.42 70.62 13 73 C12.67 85.54 12.34 98.08 12 111 C8.04 111 4.08 111 0 111 C-0.33 100.44 -0.66 89.88 -1 79 C-6.28 80.98 -11.56 82.96 -17 85 C-23 76.25 -23 76.25 -23 74 C-19.54372619 72.66128359 -16.08465703 71.32994608 -12.625 70 C-11.64015625 69.6184375 -10.6553125 69.236875 -9.640625 68.84375 C-8.69960938 68.4828125 -7.75859375 68.121875 -6.7890625 67.75 C-5.48509521 67.24726563 -5.48509521 67.24726563 -4.15478516 66.734375 C-2 66 -2 66 0 66 C0 55.11 0 44.22 0 33 C-3.465 33.495 -3.465 33.495 -7 34 C-8.32 40.6 -9.64 47.2 -11 54 C-18.875 54 -18.875 54 -23 53 C-22.4181117 47.94034265 -21.62561969 43.0475949 -20.5625 38.0625 C-18.3010566 26.84551862 -17.77117537 15.39525012 -17 4 C-13.37 4 -9.74 4 -6 4 C-6 9.94 -6 15.88 -6 22 C-4.02 22 -2.04 22 0 22 C0 14.74 0 7.48 0 0 Z " fill="#CF000E" transform="translate(867,0)"/>
<path d="M0 0 C5.94 0 11.88 0 18 0 C17.35873961 7.60173722 16.50058012 15.134036 15.4375 22.6875 C15.29892578 23.68716797 15.16035156 24.68683594 15.01757812 25.71679688 C14.68066996 28.14485914 14.34145223 30.57257335 14 33 C14.928125 32.360625 15.85625 31.72125 16.8125 31.0625 C22.15379555 27.60636759 26.79681773 27.45891245 33 28 C37.22467804 29.53624656 39.69648049 31.1203882 42 35 C45.19002902 44.57008705 42.51059234 56.1008202 41 65.8125 C40.80921875 67.08931641 40.6184375 68.36613281 40.421875 69.68164062 C39.95634772 72.7890352 39.47938273 75.89471276 39 79 C33.06 79 27.12 79 21 79 C21.47188774 72.5508675 22.08174331 66.20480776 23.0625 59.8125 C23.86544981 54.45355352 24.18658255 49.41089401 24 44 C19.84616027 43.59276081 17.74426691 43.4291009 14.3671875 46.01953125 C11.54609319 49.57150313 10.88066469 52.62802921 10.3125 57 C10.1993042 57.74241943 10.0861084 58.48483887 9.96948242 59.24975586 C9.74045414 60.7640045 9.52010292 62.27959182 9.30859375 63.79638672 C9.01828416 65.86943603 8.70303921 67.93653258 8.375 70.00390625 C7.90137734 73.00022736 7.44830771 75.99978687 7 79 C1.06 79 -4.88 79 -11 79 C-10.28258474 69.9550755 -9.05422854 61.01990135 -7.71484375 52.05078125 C-7.49180435 50.54196539 -7.26903587 49.03310946 -7.04652405 47.5242157 C-6.46561152 43.58989929 -5.88106738 39.65613115 -5.29571533 35.72247314 C-4.69686395 31.6935676 -4.10151771 27.66414426 -3.50585938 23.63476562 C-2.34063214 15.75600433 -1.1712361 7.87787028 0 0 Z " fill="#0095D7" transform="translate(141,45)"/>
<path d="M0 0 C0.68429077 -0.00095673 1.36858154 -0.00191345 2.0736084 -0.00289917 C3.52286877 -0.0035808 4.97213218 -0.00172773 6.42138672 0.00244141 C8.64687928 0.00778998 10.87217001 0.0024959 13.09765625 -0.00390625 C14.50260461 -0.00324547 15.90755285 -0.0019643 17.3125 0 C18.59962891 0.00112793 19.88675781 0.00225586 21.21289062 0.00341797 C24.15625 0.1328125 24.15625 0.1328125 25.15625 1.1328125 C25.25652795 3.53090399 25.29243676 5.90020748 25.28564453 8.29882812 C25.28739685 9.04839279 25.28914917 9.79795746 25.29095459 10.57023621 C25.2953732 13.05986819 25.2924351 15.54942973 25.2890625 18.0390625 C25.28973554 19.76159682 25.29070556 21.48413105 25.29196167 23.20666504 C25.29343865 26.82154238 25.29128407 30.43639505 25.28662109 34.05126953 C25.2809238 38.69547743 25.2842028 43.33962754 25.29019356 47.98383331 C25.29379916 51.54217976 25.29266059 55.1005124 25.29006577 58.65885925 C25.28939649 60.37176012 25.29022493 62.08466222 25.29254532 63.79756165 C25.29507183 66.18734072 25.2912313 68.57702491 25.28564453 70.96679688 C25.28766876 71.68163742 25.28969299 72.39647797 25.29177856 73.13298035 C25.27051269 78.01854981 25.27051269 78.01854981 24.15625 79.1328125 C21.7805648 79.2212092 19.43416326 79.24811555 17.05859375 79.23046875 C15.99530602 79.22834633 15.99530602 79.22834633 14.91053772 79.22618103 C12.63823288 79.22056693 10.36602525 79.20801213 8.09375 79.1953125 C6.55664204 79.19029931 5.01953255 79.18573609 3.48242188 79.18164062 C-0.29300642 79.17059292 -4.06836171 79.15331891 -7.84375 79.1328125 C-7.86687392 68.98015099 -7.88466534 58.8274957 -7.89556217 48.67481327 C-7.90079089 43.96101517 -7.90788834 39.24723503 -7.91918945 34.53344727 C-7.93001873 29.98825846 -7.93602692 25.44308698 -7.93862724 20.89788628 C-7.94048142 19.15986292 -7.94410189 17.42184056 -7.94948006 15.68382454 C-7.95669103 13.25802655 -7.95774092 10.83230104 -7.95727539 8.40649414 C-7.96087067 7.68073181 -7.96446594 6.95496948 -7.96817017 6.20721436 C-7.95378471 -0.67519792 -6.64631939 0.00582427 0 0 Z M3.15625 11.1328125 C3.15625 15.0928125 3.15625 19.0528125 3.15625 23.1328125 C6.78625 23.1328125 10.41625 23.1328125 14.15625 23.1328125 C14.15625 19.1728125 14.15625 15.2128125 14.15625 11.1328125 C10.52625 11.1328125 6.89625 11.1328125 3.15625 11.1328125 Z M3.15625 34.1328125 C3.15625 38.0928125 3.15625 42.0528125 3.15625 46.1328125 C6.78625 46.1328125 10.41625 46.1328125 14.15625 46.1328125 C14.15625 42.1728125 14.15625 38.2128125 14.15625 34.1328125 C10.52625 34.1328125 6.89625 34.1328125 3.15625 34.1328125 Z M3.15625 56.1328125 C3.15625 60.4228125 3.15625 64.7128125 3.15625 69.1328125 C6.78625 69.1328125 10.41625 69.1328125 14.15625 69.1328125 C14.15625 64.8428125 14.15625 60.5528125 14.15625 56.1328125 C10.52625 56.1328125 6.89625 56.1328125 3.15625 56.1328125 Z " fill="#CE000E" transform="translate(729.84375,2.8671875)"/>
<path d="M0 0 C4.81837438 3.83021411 7.64356985 7.43651444 8.83984375 13.5234375 C9.65942362 21.99242954 7.66896507 29.46485652 2.58984375 36.3359375 C-3.64298387 43.72927069 -10.60185202 47.85621548 -20.30859375 48.84375 C-29.03035822 49.1487068 -34.68020766 47.31096107 -41.97265625 42.7734375 C-46.83254764 37.77469207 -48.422033 33.1197009 -48.66015625 26.1484375 C-48.36157475 17.26306388 -45.66977324 9.75002767 -39.16015625 3.5234375 C-27.45150254 -4.76023588 -12.61181031 -8.6207311 0 0 Z M-26.16015625 14.5234375 C-29.17491435 17.5381956 -29.90153088 20.29922316 -30.16015625 24.5234375 C-29.37820288 27.885837 -28.568691 29.18299188 -25.91015625 31.3984375 C-22.41701867 32.82744833 -20.7476631 32.64453339 -17.16015625 31.5234375 C-13.71075381 29.24996771 -11.68428109 27.35114829 -10.16015625 23.5234375 C-9.94893805 20.39849127 -10.27232873 17.52839219 -11.16015625 14.5234375 C-16.23302096 9.9989906 -20.70086164 11.27109178 -26.16015625 14.5234375 Z " fill="#0097D9" transform="translate(235.16015625,77.4765625)"/>
<path d="M0 0 C4.41706914 3.18171178 7.2971914 7.18970088 8.81640625 12.3984375 C9.03303488 17.59752453 9.21864141 22.28949685 7.94140625 27.3984375 C-3.27859375 27.3984375 -14.49859375 27.3984375 -26.05859375 27.3984375 C-25.39859375 29.7084375 -24.73859375 32.0184375 -24.05859375 34.3984375 C-20.92827139 35.96359868 -17.46786291 35.9387745 -14.05859375 35.3984375 C-13.49398438 34.90214844 -12.929375 34.40585938 -12.34765625 33.89453125 C-8.82583638 31.59272748 -5.41475183 32.07815129 -1.30859375 32.2109375 C-0.51582031 32.22447266 0.27695312 32.23800781 1.09375 32.25195312 C3.04326189 32.28718527 4.99242251 32.34098929 6.94140625 32.3984375 C3.86803001 39.69770606 -0.03132705 44.75842035 -7.15625 48.5 C-14.75250839 51.45027095 -23.4158127 51.81368149 -30.99609375 48.7109375 C-37.01666208 45.60811295 -40.41300091 41.60369038 -43.05859375 35.3984375 C-44.28621454 25.13215778 -43.04518298 15.35137063 -36.640625 7.03125 C-27.2395511 -2.67158677 -12.320502 -6.39849275 0 0 Z M-22.05859375 12.3984375 C-22.71859375 13.7184375 -23.37859375 15.0384375 -24.05859375 16.3984375 C-18.44859375 16.3984375 -12.83859375 16.3984375 -7.05859375 16.3984375 C-7.62462301 12.32907069 -7.62462301 12.32907069 -10.43359375 10.6484375 C-15.13284958 8.41069663 -17.78316426 9.85137312 -22.05859375 12.3984375 Z " fill="#0096D9" transform="translate(373.05859375,75.6015625)"/>
<path d="M0 0 C36.63 0 73.26 0 111 0 C110 7 110 7 109 8 C107.55786001 8.09558036 106.11105921 8.12188394 104.66575623 8.12025452 C103.73041046 8.12162918 102.7950647 8.12300385 101.83137512 8.12442017 C100.79703842 8.12082489 99.76270172 8.11722961 98.69702148 8.11352539 C97.61422913 8.11367142 96.53143677 8.11381744 95.41583252 8.1139679 C91.81756626 8.11326823 88.21935103 8.10547333 84.62109375 8.09765625 C82.13387582 8.09579226 79.64665752 8.09436827 77.15943909 8.09336853 C71.26978809 8.0899335 65.3801561 8.08204277 59.49051291 8.07201904 C52.12974626 8.05976246 44.76897736 8.05437791 37.40820312 8.04882812 C24.27212602 8.03808815 11.13606417 8.02120089 -2 8 C-1.34 5.36 -0.68 2.72 0 0 Z " fill="#CF000E" transform="translate(601,77)"/>
<path d="M0 0 C1.20293984 0.00276538 1.20293984 0.00276538 2.4301815 0.00558662 C3.81001968 0.00146263 3.81001968 0.00146263 5.21773338 -0.00274467 C6.22977333 0.00444588 7.24181328 0.01163643 8.2845211 0.01904488 C9.34795235 0.01875282 10.41138359 0.01846077 11.50704002 0.01815987 C15.03499978 0.01955731 18.56275041 0.03513809 22.09067345 0.05078316 C24.53162076 0.05451181 26.97256956 0.05735948 29.41351891 0.0593586 C35.84812085 0.06700667 42.28263296 0.08666525 48.71719933 0.10876656 C55.27917834 0.12919972 61.84117182 0.13835489 68.40317345 0.14843941 C81.28602434 0.16991002 94.16881287 0.2036774 107.05161095 0.24609566 C107.17661095 5.99609566 107.17661095 5.99609566 106.05161095 8.24609566 C69.42161095 8.24609566 32.79161095 8.24609566 -4.94838905 8.24609566 C-3.65089554 0.46113456 -3.65089554 0.46113456 0 0 Z " fill="#B5000C" transform="translate(600.9483890533447,88.75390434265137)"/>
<path d="M0 0 C36.63 0 73.26 0 111 0 C110.67 2.31 110.34 4.62 110 7 C73.37 7 36.74 7 -1 7 C-0.67 4.69 -0.34 2.38 0 0 Z " fill="#CD000E" transform="translate(594,102)"/>
<path d="M0 0 C0.66 0.33 1.32 0.66 2 1 C1.4736255 5.10964995 0.89780749 9.21086248 0.3125 13.3125 C0.16361328 14.47974609 0.01472656 15.64699219 -0.13867188 16.84960938 C-0.30302734 17.96787109 -0.46738281 19.08613281 -0.63671875 20.23828125 C-0.77811279 21.26993408 -0.91950684 22.30158691 -1.06518555 23.36450195 C-2 26 -2 26 -4.41796875 27.828125 C-7.17286624 29.07845669 -9.30465352 29.4869769 -12.3125 29.6875 C-13.19550781 29.75324219 -14.07851562 29.81898437 -14.98828125 29.88671875 C-15.98408203 29.94279297 -15.98408203 29.94279297 -17 30 C-17.13046859 26.65855452 -17.09791227 23.34236874 -17 20 C-16.99226563 19.04222656 -16.98453125 18.08445312 -16.9765625 17.09765625 C-16.72905781 13.98677836 -16.38965029 11.80577011 -15 9 C-12.05415632 6.9025252 -9.20292626 5.55596575 -5.84765625 4.21875 C-3.19409435 3.08306919 -1.82150854 2.18327157 0 0 Z " fill="#0094D6" transform="translate(128,97)"/>
<path d="M0 0 C1.39664108 0.11562606 2.79231199 0.242992 4.1875 0.375 C4.96480469 0.44460937 5.74210938 0.51421875 6.54296875 0.5859375 C9.23621217 1.03980682 11.50342994 1.90913635 14 3 C13.4262611 12.08923201 12.38949558 21.00200434 11 30 C7.58536618 28.37570273 4.94787496 26.37267985 2 24 C0.34242139 22.98500693 -1.3230481 21.98265462 -3 21 C-2.69152766 18.06202558 -2.37839777 15.12467718 -2.0625 12.1875 C-1.97548828 11.35412109 -1.88847656 10.52074219 -1.79882812 9.66210938 C-1.71181641 8.85966797 -1.62480469 8.05722656 -1.53515625 7.23046875 C-1.456604 6.49207764 -1.37805176 5.75368652 -1.29711914 4.99291992 C-1 3 -1 3 0 0 Z " fill="#0094D6" transform="translate(123,41)"/>
<path d="M0 0 C3.3 0.66 6.6 1.32 10 2 C11.1196456 6.47858242 10.65274857 7.96043553 9.25 12.25 C8.87875 13.39339844 8.5075 14.53679687 8.125 15.71484375 C6.82505546 19.51086236 5.46484478 23.26464582 4 27 C0.0507432 26.44894091 -3.34920174 25.61064629 -7 24 C-6.31184495 18.61671112 -4.69258365 13.73143827 -2.9375 8.625 C-2.51500977 7.37783203 -2.51500977 7.37783203 -2.08398438 6.10546875 C-1.39342899 4.06891559 -0.69727821 2.03426119 0 0 Z " fill="#C7000D" transform="translate(726,84)"/>
<path d="M0 0 C1.32 0 2.64 0 4 0 C5.703125 2.1875 5.703125 2.1875 7.25 5 C7.77078125 5.928125 8.2915625 6.85625 8.828125 7.8125 C9.21484375 8.534375 9.6015625 9.25625 10 10 C10.66 7.03 11.32 4.06 12 1 C13.65 1 15.3 1 17 1 C16.37802877 7.33881314 15.71457113 13.67094142 15 20 C13.35 20.33 11.7 20.66 10 21 C8.02 17.7 6.04 14.4 4 11 C3.34 14.3 2.68 17.6 2 21 C0.35 21 -1.3 21 -3 21 C-1.47016275 1.47016275 -1.47016275 1.47016275 0 0 Z " fill="#8B8B8C" transform="translate(273,40)"/>
<path d="M0 0 C2.32421875 0.21484375 2.32421875 0.21484375 5 1 C6.58203125 3.06640625 6.58203125 3.06640625 7.8125 5.5625 C8.23144531 6.38878906 8.65039062 7.21507812 9.08203125 8.06640625 C9.38496094 8.70449219 9.68789063 9.34257813 10 10 C10.66 7.03 11.32 4.06 12 1 C13.65 1 15.3 1 17 1 C16.56367091 7.88940671 15.91610155 14.35751464 14 21 C12.68 21 11.36 21 10 21 C8.296875 18.8125 8.296875 18.8125 6.75 16 C6.22921875 15.071875 5.7084375 14.14375 5.171875 13.1875 C4.59179688 12.1046875 4.59179688 12.1046875 4 11 C3.34 14.3 2.68 17.6 2 21 C0.35 21 -1.3 21 -3 21 C-2.69152766 18.06202558 -2.37839777 15.12467718 -2.0625 12.1875 C-1.97548828 11.35412109 -1.88847656 10.52074219 -1.79882812 9.66210938 C-1.71181641 8.85966797 -1.62480469 8.05722656 -1.53515625 7.23046875 C-1.456604 6.49207764 -1.37805176 5.75368652 -1.29711914 4.99291992 C-1 3 -1 3 0 0 Z " fill="#8D8D8E" transform="translate(344,40)"/>
<path d="M0 0 C3.07992859 2.68506595 3.88150964 4.36015204 4.625 8.375 C3.79538314 13.18677778 1.54458928 15.74926268 -2 19 C-5.09173752 20.54586876 -7.59429552 20.29359521 -11 20 C-13.36497439 18.13291495 -14.66030715 16.67938569 -16 14 C-16.13362091 9.14192537 -15.67980781 5.8587046 -12.625 2 C-8.22124717 -1.35524025 -5.28978347 -1.29924506 0 0 Z M-9.375 5.5625 C-11.33879744 7.96521177 -11.33879744 7.96521177 -10.75 11.25 C-10.5025 12.1575 -10.255 13.065 -10 14 C-8.35 14.33 -6.7 14.66 -5 15 C-2.8312811 12.81099414 -2.8312811 12.81099414 -1 10 C-1.13149826 7.24875747 -1.13149826 7.24875747 -2 5 C-5.27751687 3.90749438 -6.4185434 3.61746276 -9.375 5.5625 Z " fill="#8F8F8F" transform="translate(255,41)"/>
<path d="M0 0 C7 13.27586207 7 13.27586207 7 20 C2.05 21.485 2.05 21.485 -3 23 C-3.598125 21.494375 -4.19625 19.98875 -4.8125 18.4375 C-6.06795613 15.28322232 -7.36080513 12.15993927 -8.75 9.0625 C-10 6 -10 6 -10 3 C-3.375 0 -3.375 0 0 0 Z " fill="#C4000D" transform="translate(750,85)"/>
<path d="M0 0 C3.63 0 7.26 0 11 0 C11 1.32 11 2.64 11 4 C9.02 4 7.04 4 5 4 C5 4.66 5 5.32 5 6 C6.65 6.33 8.3 6.66 10 7 C10 8.32 10 9.64 10 11 C8.02 11 6.04 11 4 11 C4 11.99 4 12.98 4 14 C5.65 14.33 7.3 14.66 9 15 C9 16.65 9 18.3 9 20 C5.37 20 1.74 20 -2 20 C-1.03644647 6.3667426 -1.03644647 6.3667426 0 0 Z " fill="#989899" transform="translate(374,41)"/>
<path d="M0 0 C1.65 0 3.3 0 5 0 C5.08333357 4.8333472 4.95261487 9.23692563 4 14 C5.32 14.33 6.64 14.66 8 15 C8 16.65 8 18.3 8 20 C4.7 20 1.4 20 -2 20 C-2.26404456 13.13484138 -1.25841946 6.74153283 0 0 Z " fill="#7D7D7E" transform="translate(303,41)"/>
<path d="M0 0 C2.3125 0.0625 2.3125 0.0625 5 1 C6.8125 4.5625 6.8125 4.5625 8 8 C7.02149805 9.02104551 6.02019573 10.0206121 5 11 C4.67 11 4.34 11 4 11 C3.34 14.3 2.68 17.6 2 21 C0.35 21 -1.3 21 -3 21 C-2.69152766 18.06202558 -2.37839777 15.12467718 -2.0625 12.1875 C-1.97548828 11.35412109 -1.88847656 10.52074219 -1.79882812 9.66210938 C-1.71181641 8.85966797 -1.62480469 8.05722656 -1.53515625 7.23046875 C-1.456604 6.49207764 -1.37805176 5.75368652 -1.29711914 4.99291992 C-1 3 -1 3 0 0 Z " fill="#858586" transform="translate(344,40)"/>
<path d="M0 0 C0.66 0.99 1.32 1.98 2 3 C3.99791713 3.46120839 3.99791713 3.46120839 6.34060669 3.39872742 C7.25208466 3.41126556 8.16356262 3.42380371 9.10266113 3.4367218 C10.60669495 3.43456917 10.60669495 3.43456917 12.14111328 3.43237305 C13.19479095 3.4425647 14.24846863 3.45275635 15.33407593 3.46325684 C18.82954113 3.4935391 22.32473301 3.50267612 25.8203125 3.51171875 C28.23885012 3.52855412 30.65737892 3.54670279 33.07589722 3.56611633 C39.4512456 3.61374631 45.82655827 3.64347158 52.20202637 3.66955566 C58.70376644 3.69929571 65.20538329 3.74584844 71.70703125 3.79101562 C84.47128733 3.87719658 97.23557326 3.94504653 110 4 C110 4.33 110 4.66 110 5 C73.37 5 36.74 5 -1 5 C-0.67 3.35 -0.34 1.7 0 0 Z " fill="#A9000B" transform="translate(600,80)"/>
<path d="M0 0 C1.65 0 3.3 0 5 0 C4.85834107 2.39614575 4.71181159 4.79182897 4.5625 7.1875 C4.50352539 8.19780273 4.50352539 8.19780273 4.44335938 9.22851562 C4.21072435 12.89699102 3.82792989 16.41694206 3 20 C1.35 20 -0.3 20 -2 20 C-1.03644647 6.3667426 -1.03644647 6.3667426 0 0 Z " fill="#8D8D8E" transform="translate(325,41)"/>
<path d="M0 0 C0.66 0 1.32 0 2 0 C2 0.99 2 1.98 2 3 C13.55 3 25.1 3 37 3 C37 2.01 37 1.02 37 0 C37.66 0 38.32 0 39 0 C38.67 1.65 38.34 3.3 38 5 C25.46 5 12.92 5 0 5 C0 3.35 0 1.7 0 0 Z " fill="#BB000D" transform="translate(420,36)"/>
<path d="M0 0 C0.33 0 0.66 0 1 0 C1.33 1.65 1.66 3.3 2 5 C2.66 5 3.32 5 4 5 C4 5.99 4 6.98 4 8 C5.98 8 7.96 8 10 8 C10 9.65 10 11.3 10 13 C6.37 13 2.74 13 -1 13 C-0.67 8.71 -0.34 4.42 0 0 Z " fill="#787879" transform="translate(373,48)"/>
<path d="M0 0 C2.69082872 0.17635452 5.32851446 0.61835921 8 1 C8 2.32 8 3.64 8 5 C6.02 5 4.04 5 2 5 C1.67 5.99 1.34 6.98 1 8 C1 7.34 1 6.68 1 6 C0.34 6 -0.32 6 -1 6 C-1.042721 4.33388095 -1.04063832 2.66617115 -1 1 C-0.67 0.67 -0.34 0.34 0 0 Z " fill="#8F8F90" transform="translate(376,47)"/>
<path d="M0 0 C0.33 0 0.66 0 1 0 C1.33 3.3 1.66 6.6 2 10 C8.93 10.495 8.93 10.495 16 11 C16.33 10.34 16.66 9.68 17 9 C17 9.99 17 10.98 17 12 C11.06 12 5.12 12 -1 12 C-0.67 8.04 -0.34 4.08 0 0 Z " fill="#006490" transform="translate(306,112)"/>
<path d="M0 0 C0 3 0 3 -1.8984375 5.26171875 C-2.71570313 6.06222656 -3.53296875 6.86273438 -4.375 7.6875 C-5.18710938 8.49574219 -5.99921875 9.30398437 -6.8359375 10.13671875 C-9 12 -9 12 -11 12 C-8.84618556 6.71336455 -4.57763162 3.22129633 0 0 Z " fill="#008AC7" transform="translate(202,77)"/>
<path d="M0 0 C3.50281042 4.67041389 3.5344992 6.41399038 4 12 C2.35 12 0.7 12 -1 12 C-0.67 8.04 -0.34 4.08 0 0 Z " fill="#717172" transform="translate(271,49)"/>
<path d="M0 0 C0 0.99 0 1.98 0 3 C0.86649466 4.98330173 0.86649466 4.98330173 2 7 C2.6695976 8.33186384 3.3366799 9.66499863 4 11 C2.65826597 10.07456291 1.32679841 9.13422595 0 8.1875 C-0.7425 7.66542969 -1.485 7.14335938 -2.25 6.60546875 C-2.8275 6.07566406 -3.405 5.54585938 -4 5 C-4 4.01 -4 3.02 -4 2 C-2.68 1.34 -1.36 0.68 0 0 Z " fill="#BC000D" transform="translate(896,96)"/>
<path d="M0 0 C0.99 0.33 1.98 0.66 3 1 C2.01 2.485 2.01 2.485 1 4 C0.01 4 -0.98 4 -2 4 C-1.34 2.68 -0.68 1.36 0 0 Z M-5 4 C-4.01 4.33 -3.02 4.66 -2 5 C-2.33 6.65 -2.66 8.3 -3 10 C-3.66 10 -4.32 10 -5 10 C-5 8.02 -5 6.04 -5 4 Z " fill="#878787" transform="translate(244,45)"/>
<path d="M0 0 C0 0.99 0 1.98 0 3 C-2.64 3 -5.28 3 -8 3 C-8 2.01 -8 1.02 -8 0 C-5.13822943 -1.43088528 -3.06624227 -0.59991697 0 0 Z " fill="#919191" transform="translate(311,56)"/>
<path d="M0 0 C0.99 0.33 1.98 0.66 3 1 C0.69 3.31 -1.62 5.62 -4 8 C-4.66 7.34 -5.32 6.68 -6 6 C-4.02 4.02 -2.04 2.04 0 0 Z " fill="#B8000C" transform="translate(434,10)"/>
<path d="M0 0 C0.33 0 0.66 0 1 0 C1 1.65 1 3.3 1 5 C2.32 4.67 3.64 4.34 5 4 C5 4.99 5 5.98 5 7 C3.35 7 1.7 7 0 7 C0 4.69 0 2.38 0 0 Z " fill="#555556" transform="translate(323,54)"/>
<path d="M0 0 C1.32 0 2.64 0 4 0 C4 1.98 4 3.96 4 6 C3.34 6 2.68 6 2 6 C0 3 0 3 0 0 Z " fill="#959596" transform="translate(326,41)"/>
</svg>
