<svg version="1.2" xmlns="http://www.w3.org/2000/svg" viewBox="0 0 1553 1168" width="1553" height="1168">
	<title>momo_2021ESGreport(english)-1-pdf-svg</title>
	<defs>
		<clipPath clipPathUnits="userSpaceOnUse" id="cp1">
			<path d="m-5649.16-2820.61h16894.32v11950.72h-16894.32z"/>
		</clipPath>
	</defs>
	<style>
		.s0 { fill: #d4006e } 
	</style>
	<g id="Clip-Path: Page 1" clip-path="url(#cp1)">
		<g id="Page 1">
			<path id="Path 1210" fill-rule="evenodd" class="s0" d="m748.4 79.3v429.4h-149.5v-359.2h-149.5v359.2h-149.4v-359.2h-150.5v359.2h-149.5v-429.4c0-44.2 36.1-79.3 80.3-79.3h587.9c44.1 0 80.2 35.1 80.2 79.3zm0 660.2v428.5h-149.5v-359.2h-149.5v359.2h-149.4v-359.2h-150.5v359.2h-149.5v-428.5c0-44.1 36.1-80.3 80.3-80.3h587.9c44.1 0 80.2 36.2 80.2 80.3zm86.3-659.5c0-44.2 35.8-80 80-80h558.3c44.2 0 80 35.8 80 80v348.7c0 44.2-35.8 80-80 80h-558.3c-44.2 0-80-35.8-80-80zm142.4 259.3c0 23.2 18.8 42 42 42h351.4c23.2 0 42-18.8 42-42v-170.8c0-23.2-18.8-42-42-42h-351.4c-23.2 0-42 18.8-42 42z"/>
			<path id="Path 1211" fill-rule="evenodd" class="s0" d="m834.7 739.2c0-44.1 35.8-80 80-80h558.3c44.2 0 80 35.9 80 80v348.8c0 44.2-35.8 80-80 80h-558.3c-44.2 0-80-35.8-80-80zm589.9 194.9c0-63.2-59.2-187.6-246.8-205.7-59.2 10.1-214.7 70.3-214.7 210.7 0 45.2 23.1 88.3 61.2 124.5 27.1 25 65.2 40.1 57.2 33.1-12.1-12.1-16.1-37.2-13.1-53.2 8.1-42.2 41.2-54.2 41.2-54.2 0 0-14.1 92.3 126.4 107.4 9 1 28.1 1 29.1 1 2 1 33.1-2 45.1-6 62.2-13.1 114.4-63.3 114.4-157.6z"/>
		</g>
	</g>
</svg>